<svg width="25" height="25" viewBox="0 0 25 25" fill="none" xmlns="http://www.w3.org/2000/svg">
<path d="M19.0842 7.38484C19.4748 6.99432 19.4748 6.36115 19.0842 5.97063L19.0297 5.91609C18.6392 5.52557 18.006 5.52557 17.6155 5.91609L13.2068 10.3248C12.8163 10.7153 12.1831 10.7153 11.7926 10.3248L7.38386 5.91609C6.99334 5.52557 6.36018 5.52557 5.96965 5.91609L5.91511 5.97063C5.52459 6.36115 5.52459 6.99432 5.91511 7.38484L10.3238 11.7935C10.7143 12.1841 10.7143 12.8172 10.3238 13.2078L5.91511 17.6165C5.52459 18.007 5.52459 18.6402 5.91511 19.0307L5.96965 19.0852C6.36018 19.4757 6.99334 19.4757 7.38386 19.0852L11.7926 14.6765C12.1831 14.286 12.8163 14.286 13.2068 14.6765L17.6155 19.0852C18.006 19.4757 18.6392 19.4757 19.0297 19.0852L19.0842 19.0307C19.4748 18.6402 19.4748 18.007 19.0842 17.6165L14.6755 13.2078C14.285 12.8172 14.285 12.1841 14.6755 11.7935L19.0842 7.38484Z" fill="#1C1B1F"/>
</svg>
