<svg width="20" height="20" viewBox="0 0 20 20" fill="none" xmlns="http://www.w3.org/2000/svg">
<path d="M12.9165 0.833984H6.24984C5.09984 0.833984 4.1665 1.76732 4.1665 2.91732V17.084C4.1665 18.234 5.09984 19.1673 6.24984 19.1673H12.9165C14.0665 19.1673 14.9998 18.234 14.9998 17.084V2.91732C14.9998 1.76732 14.0665 0.833984 12.9165 0.833984ZM9.58317 18.334C8.8915 18.334 8.33317 17.7757 8.33317 17.084C8.33317 16.3923 8.8915 15.834 9.58317 15.834C10.2748 15.834 10.8332 16.3923 10.8332 17.084C10.8332 17.7757 10.2748 18.334 9.58317 18.334ZM13.3332 15.0006H5.83317V3.33398H13.3332V15.0006Z" fill="#1C1B1F"/>
</svg>
