<svg width="1366" height="852" viewBox="0 0 1366 852" fill="none" xmlns="http://www.w3.org/2000/svg">
<g clip-path="url(#clip0_2762_4058)">
<path d="M1031.09 161.979C1075.82 161.979 1112.09 125.719 1112.09 80.9895C1112.09 36.2602 1075.82 0 1031.09 0C986.359 0 950.097 36.2602 950.097 80.9895C950.097 125.719 986.359 161.979 1031.09 161.979Z" fill="#F6BA8C"/>
<path d="M1177.26 18.8507C1138 13.5452 1093.19 34.7606 1083.01 73.0399C1080.45 66.2338 1075.79 60.419 1069.7 56.4355C1063.62 52.4519 1056.42 50.506 1049.16 50.8787C1041.9 51.2514 1034.94 53.9235 1029.29 58.509C1023.65 63.0944 1019.61 69.3558 1017.75 76.3885L1022.25 79.607C1106.37 97.7967 1193.44 97.403 1277.39 78.4534C1250.09 49.7595 1216.51 24.1561 1177.26 18.8507Z" fill="#F0F0F0"/>
<path d="M1008.91 126.837C969.66 121.531 924.846 142.747 914.672 181.026C912.108 174.22 907.447 168.405 901.361 164.422C895.276 160.438 888.082 158.492 880.818 158.865C873.554 159.238 866.597 161.91 860.951 166.495C855.306 171.081 851.264 177.342 849.41 184.375L853.904 187.593C938.023 205.783 1025.1 205.389 1109.05 186.44C1081.75 157.746 1048.17 132.142 1008.91 126.837Z" fill="#F0F0F0"/>
<path d="M692.004 254.921C679.824 234.778 665.391 213.271 642.788 206.693C616.613 199.076 589.724 214.208 566.916 229.139C498.707 273.795 433.02 322.189 370.157 374.1L370.226 374.882C419.167 371.507 468.109 368.132 517.05 364.757C552.41 362.319 588.985 359.544 620.234 342.817C632.092 336.47 643.651 327.992 657.087 327.401C673.781 326.667 688.338 338.326 699.777 350.506C767.443 422.556 787.024 532.739 862.938 596.041C815.069 477.994 757.912 363.93 692.004 254.921Z" fill="#F2F2F2"/>
<path d="M1107.94 866.042C1100.45 856.593 1097.4 854.381 1090.02 844.845C1029.92 767.12 973.427 686.77 920.549 603.794C884.633 547.44 850.497 490.004 818.142 431.486C802.739 403.666 787.758 375.627 773.199 347.37C761.902 325.46 750.856 303.42 740.063 281.248C736.977 274.915 733.977 268.553 730.993 262.177C723.961 247.182 717.06 232.115 709.65 217.324C701.206 200.466 690.927 182.792 675.421 171.466C668.365 166.1 659.927 162.854 651.093 162.106C638.471 161.29 626.824 166.502 615.876 172.194C535.773 213.961 460.78 266.326 392.95 325.912C324.947 385.631 264.163 453.1 211.837 526.943C210.237 529.228 206.451 527.045 208.067 524.745C214.429 515.748 220.918 506.848 227.532 498.045C309.779 388.665 410.627 294.605 525.465 220.163C544.785 207.643 564.469 195.71 584.516 184.365C594.62 178.643 604.767 172.995 615.089 167.696C625.208 162.499 635.952 157.825 647.512 157.651C686.85 157.039 707.218 201.587 721.209 231.562C725.606 240.995 730.056 250.4 734.56 259.775C751.579 295.369 769.253 330.638 787.583 365.582C798.895 387.157 810.455 408.606 822.263 429.928C859.009 496.327 898.066 561.382 939.433 625.093C994.232 709.485 1048.6 784.036 1111.02 862.955C1112.74 865.139 1109.67 868.254 1107.94 866.042Z" fill="#E4E4E4"/>
<path d="M389.062 303.915C386.777 301.367 384.506 298.82 382.205 296.272C364.065 276.211 344.6 256.383 319.689 244.882C307.812 239.225 294.846 236.22 281.691 236.075C268.093 236.118 254.801 239.685 242.237 244.678C236.296 247.051 230.487 249.745 224.766 252.612C218.229 255.903 211.808 259.411 205.417 262.949C193.42 269.587 181.579 276.517 169.894 283.737C146.643 298.106 124.12 313.572 102.326 330.134C91.0275 338.723 79.9627 347.594 69.131 356.746C59.0563 365.248 49.1855 373.977 39.5184 382.935C37.4512 384.843 34.3645 381.756 36.4317 379.849C38.9795 377.476 41.5565 375.118 44.1335 372.789C51.4129 366.208 58.8089 359.754 66.3215 353.426C80.021 341.867 94.0751 330.755 108.484 320.089C130.89 303.493 154.068 288.022 178.017 273.678C189.985 266.515 202.117 259.654 214.414 253.093C218.127 251.113 221.883 249.177 225.683 247.343C234.305 242.994 243.263 239.347 252.471 236.439C265.515 232.219 279.315 230.864 292.93 232.464C306.076 234.376 318.742 238.758 330.26 245.377C354.718 259.047 373.688 280.185 392.149 300.814C394.013 302.91 390.941 306.011 389.062 303.915Z" fill="#E4E4E4"/>
<path d="M890.214 511.797L948.823 490.362L977.923 479.719C987.4 476.253 996.855 472.307 1006.65 469.825C1015.17 467.394 1024.21 467.509 1032.66 470.157C1040.19 472.946 1047.09 477.221 1052.94 482.729C1058.91 488.231 1064.47 494.169 1069.57 500.493C1075.91 508.106 1082.15 515.8 1088.42 523.467C1114.3 555.112 1140.01 586.895 1165.54 618.815C1191.08 650.734 1216.45 682.789 1241.65 714.979C1266.91 747.249 1291.99 779.653 1316.9 812.192C1319.95 816.178 1323 820.166 1326.05 824.156C1327.73 826.361 1331.53 824.187 1329.82 821.952C1304.73 789.085 1279.46 756.354 1254.01 723.757C1228.5 691.082 1202.82 658.545 1176.96 626.147C1151.1 593.75 1125.07 561.493 1098.86 529.377C1092.33 521.375 1085.79 513.383 1079.24 505.4C1073.71 498.665 1068.25 491.858 1062.19 485.59C1051.06 474.085 1037.16 463.917 1020.52 463.641C1010.74 463.479 1001.27 466.583 992.185 469.871C982.387 473.415 972.612 477.026 962.827 480.605L903.808 502.19L889.053 507.586C886.434 508.544 887.565 512.766 890.214 511.798L890.214 511.797Z" fill="#E4E4E4"/>
<path d="M311.977 270.125C282.194 254.818 244.051 257.816 216.682 276.939C268.887 285.945 320.52 297.996 371.319 313.028C350.224 300.667 333.723 281.3 311.977 270.125Z" fill="#F2F2F2"/>
<path d="M216.388 276.887L210.654 281.547C212.594 279.916 214.61 278.387 216.681 276.939C216.583 276.923 216.486 276.904 216.388 276.887Z" fill="#F2F2F2"/>
<path d="M1050.73 512.013C1044.96 504.99 1038.72 497.637 1030.09 494.785L1022.04 495.103C1083.37 603.468 1166.2 698.157 1265.45 773.358C1193.87 686.243 1122.3 599.128 1050.73 512.013Z" fill="#F2F2F2"/>
<path d="M549.731 454.082C553.459 467.627 561.859 479.417 573.443 487.365C577.922 490.414 583.221 493.339 584.753 498.536C585.559 501.849 585.063 505.345 583.366 508.302C581.672 511.222 579.611 513.913 577.234 516.308L577.017 517.121C565.902 510.535 555.329 502.204 549.189 490.838C543.05 479.471 542.193 464.573 549.731 454.082" fill="#F2F2F2"/>
<path d="M919.764 776.453C923.492 789.998 931.892 801.788 943.477 809.736C947.955 812.785 953.254 815.71 954.787 820.907C955.593 824.22 955.096 827.716 953.399 830.674C951.705 833.593 949.645 836.284 947.267 838.679L947.05 839.492C935.935 832.906 925.362 824.575 919.222 813.209C913.083 801.842 912.226 786.944 919.764 776.453" fill="#F2F2F2"/>
<path d="M181.285 754.219C185.013 767.764 193.412 779.553 204.997 787.502C209.476 790.551 214.775 793.476 216.307 798.673C217.113 801.986 216.616 805.482 214.92 808.439C213.226 811.359 211.165 814.049 208.787 816.445L208.57 817.258C197.456 810.672 186.882 802.341 180.743 790.974C174.603 779.608 173.746 764.71 181.285 754.219" fill="#F2F2F2"/>
</g>
<defs>
<clipPath id="clip0_2762_4058">
<rect width="1366" height="907" fill="white"/>
</clipPath>
</defs>
</svg>
