<svg width="215" height="203" viewBox="0 0 215 203" fill="none" xmlns="http://www.w3.org/2000/svg">
<path d="M140.546 160.895C109.474 178.401 47.6245 167.393 32.6805 140.869C17.7366 114.345 38.8354 61.1671 69.9072 43.6609C100.459 23.2439 156.57 30.9115 180.417 61.4344C220.826 113.154 171.618 143.389 140.546 160.895Z" fill="#F6BA8C"/>
<path d="M69.0246 108.735C68.624 108.735 68.2902 108.601 68.0231 108.334C67.756 108.023 67.6225 107.667 67.6225 107.266C67.6225 107.088 67.667 106.888 67.756 106.665L83.1785 72.0814H63.1493C62.7042 72.0814 62.3036 71.9256 61.9476 71.614C61.636 71.258 61.4802 70.8351 61.4802 70.3455V63.6691C61.4802 63.1795 61.636 62.7789 61.9476 62.4674C62.3036 62.1558 62.7042 62 63.1493 62H94.3949C94.929 62 95.3519 62.1558 95.6634 62.4674C95.975 62.7789 96.1308 63.1795 96.1308 63.6691V69.6111C96.1308 70.2787 96.064 70.8351 95.9305 71.2802C95.797 71.7253 95.6189 72.1704 95.3964 72.6155L79.9739 107.133C79.8403 107.4 79.5955 107.733 79.2395 108.134C78.8834 108.535 78.3493 108.735 77.6371 108.735H69.0246Z" fill="#1C1B1F"/>
<path d="M103.127 108.737C102.888 108.737 102.674 108.654 102.483 108.487C102.316 108.296 102.232 108.082 102.232 107.843V105.161C102.232 104.636 102.519 104.35 103.091 104.302C103.782 104.231 104.319 103.909 104.7 103.337C105.106 102.741 105.392 101.835 105.559 100.618C105.726 99.4024 105.809 97.8406 105.809 95.9331V91.0331C105.809 90.7708 105.893 90.5562 106.059 90.3893C106.226 90.2224 106.441 90.1389 106.703 90.1389H120.044C120.306 90.1389 120.521 90.2224 120.688 90.3893C120.855 90.5562 120.938 90.7708 120.938 91.0331V107.843C120.938 108.106 120.855 108.32 120.688 108.487C120.521 108.654 120.306 108.737 120.044 108.737H116.467C116.229 108.737 116.014 108.654 115.824 108.487C115.657 108.32 115.573 108.106 115.573 107.843V94.3594H110.924V96.5411C110.924 98.8063 110.793 100.726 110.53 102.3C110.292 103.873 109.875 105.137 109.278 106.091C108.682 107.021 107.884 107.7 106.882 108.129C105.881 108.535 104.629 108.737 103.127 108.737Z" fill="#1C1B1F"/>
<path d="M133.859 109.095C131.117 109.095 128.935 108.332 127.314 106.806C125.716 105.28 124.87 103.063 124.775 100.154C124.775 99.9628 124.775 99.7124 124.775 99.4024C124.775 99.0686 124.775 98.8063 124.775 98.6156C124.87 96.7796 125.287 95.2058 126.026 93.8944C126.766 92.5591 127.803 91.5457 129.138 90.8542C130.473 90.1389 132.035 89.7812 133.823 89.7812C135.826 89.7812 137.495 90.1985 138.831 91.0331C140.19 91.8438 141.203 92.9645 141.871 94.3951C142.562 95.8019 142.908 97.4234 142.908 99.2594V100.082C142.908 100.32 142.813 100.523 142.622 100.69C142.455 100.857 142.252 100.94 142.014 100.94H130.318C130.318 100.964 130.318 101.012 130.318 101.083C130.318 101.131 130.318 101.179 130.318 101.227C130.342 101.99 130.485 102.693 130.748 103.337C131.034 103.957 131.427 104.457 131.928 104.839C132.452 105.22 133.072 105.411 133.788 105.411C134.384 105.411 134.873 105.328 135.254 105.161C135.636 104.994 135.946 104.791 136.184 104.553C136.446 104.314 136.637 104.112 136.756 103.945C136.971 103.706 137.138 103.563 137.257 103.516C137.4 103.444 137.615 103.408 137.901 103.408H141.621C141.859 103.408 142.05 103.48 142.193 103.623C142.36 103.742 142.431 103.921 142.407 104.159C142.384 104.541 142.181 105.018 141.799 105.59C141.442 106.138 140.905 106.687 140.19 107.235C139.475 107.76 138.58 108.201 137.507 108.559C136.458 108.916 135.242 109.095 133.859 109.095ZM130.318 97.6856H137.329V97.6141C137.329 96.7557 137.185 96.0165 136.899 95.3966C136.637 94.7528 136.244 94.2521 135.719 93.8944C135.194 93.5367 134.563 93.3579 133.823 93.3579C133.084 93.3579 132.452 93.5367 131.928 93.8944C131.403 94.2521 130.998 94.7528 130.712 95.3966C130.449 96.0165 130.318 96.7557 130.318 97.6141V97.6856Z" fill="#1C1B1F"/>
<path d="M152.134 108.737C151.872 108.737 151.658 108.654 151.491 108.487C151.324 108.32 151.24 108.106 151.24 107.843V94.3594H145.625C145.363 94.3594 145.148 94.2759 144.981 94.109C144.814 93.9421 144.731 93.7275 144.731 93.4652V91.0331C144.731 90.7708 144.814 90.5562 144.981 90.3893C145.148 90.2224 145.363 90.1389 145.625 90.1389H162.113C162.376 90.1389 162.59 90.2224 162.757 90.3893C162.924 90.5562 163.007 90.7708 163.007 91.0331V93.4652C163.007 93.7275 162.924 93.9421 162.757 94.109C162.59 94.2759 162.376 94.3594 162.113 94.3594H156.498V107.843C156.498 108.106 156.415 108.32 156.248 108.487C156.081 108.654 155.878 108.737 155.64 108.737H152.134Z" fill="#1C1B1F"/>
<path d="M67.0414 135.058C66.8884 135.058 66.7632 135.009 66.6658 134.912C66.5685 134.814 66.5198 134.689 66.5198 134.536V120.975C66.5198 120.822 66.5685 120.697 66.6658 120.599C66.7632 120.502 66.8884 120.453 67.0414 120.453H75.7833C75.9363 120.453 76.0615 120.502 76.1588 120.599C76.2562 120.697 76.3049 120.822 76.3049 120.975V122.748C76.3049 122.887 76.2562 123.005 76.1588 123.103C76.0615 123.2 75.9363 123.249 75.7833 123.249H69.8371V134.536C69.8371 134.689 69.7884 134.814 69.6911 134.912C69.5937 135.009 69.4685 135.058 69.3155 135.058H67.0414Z" fill="#1C1B1F"/>
<path d="M81.0146 135.266C80.2774 135.266 79.6167 135.127 79.0325 134.849C78.4483 134.557 77.9824 134.168 77.6346 133.681C77.2869 133.194 77.113 132.651 77.113 132.053C77.113 131.066 77.5094 130.287 78.3023 129.717C79.109 129.146 80.1661 128.757 81.4736 128.548L84.2067 128.152V127.776C84.2067 127.234 84.0815 126.817 83.8312 126.524C83.5808 126.232 83.1427 126.086 82.5167 126.086C82.0577 126.086 81.6891 126.177 81.411 126.358C81.1328 126.538 80.9172 126.775 80.7642 127.067C80.6529 127.248 80.493 127.338 80.2843 127.338H78.3023C78.1493 127.338 78.031 127.296 77.9476 127.213C77.8641 127.116 77.8294 127.004 77.8433 126.879C77.8433 126.643 77.9337 126.365 78.1145 126.045C78.2953 125.725 78.5735 125.412 78.949 125.106C79.3246 124.786 79.8045 124.522 80.3886 124.313C80.9728 124.104 81.6891 124 82.5376 124C83.4139 124 84.165 124.104 84.7909 124.313C85.4168 124.522 85.9175 124.814 86.2931 125.189C86.6686 125.565 86.9468 126.003 87.1276 126.504C87.3085 126.99 87.3989 127.519 87.3989 128.089V134.536C87.3989 134.689 87.3502 134.814 87.2528 134.912C87.1555 135.009 87.0303 135.058 86.8773 135.058H84.8326C84.6935 135.058 84.5753 135.009 84.4779 134.912C84.3806 134.814 84.3319 134.689 84.3319 134.536V133.764C84.1511 134.028 83.9077 134.279 83.6017 134.515C83.2957 134.738 82.9271 134.919 82.4959 135.058C82.0786 135.197 81.5848 135.266 81.0146 135.266ZM81.8491 133.097C82.3081 133.097 82.7184 132.999 83.0801 132.804C83.4417 132.61 83.7268 132.311 83.9355 131.907C84.1441 131.504 84.2484 130.996 84.2484 130.384V130.03L82.3081 130.343C81.557 130.468 81.0076 130.656 80.6599 130.906C80.3121 131.156 80.1383 131.462 80.1383 131.824C80.1383 132.088 80.2148 132.318 80.3678 132.512C80.5347 132.707 80.7503 132.853 81.0146 132.951C81.2788 133.048 81.557 133.097 81.8491 133.097Z" fill="#1C1B1F"/>
<path d="M90.4466 139.022C90.2936 139.022 90.1684 138.973 90.0711 138.876C89.9737 138.778 89.925 138.653 89.925 138.5V124.73C89.925 124.577 89.9737 124.452 90.0711 124.355C90.1684 124.257 90.2936 124.209 90.4466 124.209H92.4287C92.5817 124.209 92.7069 124.257 92.8042 124.355C92.9016 124.452 92.9503 124.577 92.9503 124.73V125.523C93.2841 125.078 93.7153 124.716 94.2438 124.438C94.7724 124.146 95.4331 124 96.2259 124C96.9492 124 97.5751 124.118 98.1036 124.355C98.6461 124.577 99.0981 124.904 99.4598 125.335C99.8353 125.753 100.12 126.26 100.315 126.858C100.524 127.456 100.642 128.131 100.67 128.882C100.684 129.146 100.691 129.397 100.691 129.633C100.691 129.87 100.684 130.127 100.67 130.405C100.656 131.115 100.545 131.768 100.336 132.366C100.141 132.964 99.8562 133.479 99.4806 133.91C99.1051 134.341 98.6461 134.675 98.1036 134.912C97.5751 135.148 96.9492 135.266 96.2259 135.266C95.5165 135.266 94.8975 135.141 94.369 134.891C93.8544 134.627 93.4301 134.272 93.0963 133.827V138.5C93.0963 138.653 93.0476 138.778 92.9503 138.876C92.8529 138.973 92.7347 139.022 92.5956 139.022H90.4466ZM95.287 132.763C95.8156 132.763 96.2328 132.651 96.5388 132.429C96.8448 132.192 97.0604 131.886 97.1856 131.511C97.3247 131.135 97.4082 130.725 97.436 130.28C97.4638 129.849 97.4638 129.418 97.436 128.986C97.4082 128.541 97.3247 128.131 97.1856 127.755C97.0604 127.38 96.8448 127.081 96.5388 126.858C96.2328 126.622 95.8156 126.504 95.287 126.504C94.7724 126.504 94.3551 126.622 94.0352 126.858C93.7153 127.095 93.4858 127.394 93.3467 127.755C93.2076 128.117 93.1241 128.507 93.0963 128.924C93.0824 129.174 93.0754 129.432 93.0754 129.696C93.0754 129.96 93.0824 130.224 93.0963 130.489C93.1102 130.878 93.1937 131.247 93.3467 131.594C93.5136 131.928 93.75 132.206 94.056 132.429C94.376 132.651 94.7863 132.763 95.287 132.763Z" fill="#1C1B1F"/>
<path d="M106.096 135.266C105.359 135.266 104.698 135.127 104.114 134.849C103.53 134.557 103.064 134.168 102.716 133.681C102.368 133.194 102.194 132.651 102.194 132.053C102.194 131.066 102.591 130.287 103.384 129.717C104.19 129.146 105.247 128.757 106.555 128.548L109.288 128.152V127.776C109.288 127.234 109.163 126.817 108.913 126.524C108.662 126.232 108.224 126.086 107.598 126.086C107.139 126.086 106.77 126.177 106.492 126.358C106.214 126.538 105.999 126.775 105.846 127.067C105.734 127.248 105.574 127.338 105.366 127.338H103.384C103.231 127.338 103.112 127.296 103.029 127.213C102.945 127.116 102.911 127.004 102.925 126.879C102.925 126.643 103.015 126.365 103.196 126.045C103.377 125.725 103.655 125.412 104.03 125.106C104.406 124.786 104.886 124.522 105.47 124.313C106.054 124.104 106.77 124 107.619 124C108.495 124 109.246 124.104 109.872 124.313C110.498 124.522 110.999 124.814 111.374 125.189C111.75 125.565 112.028 126.003 112.209 126.504C112.39 126.99 112.48 127.519 112.48 128.089V134.536C112.48 134.689 112.432 134.814 112.334 134.912C112.237 135.009 112.112 135.058 111.959 135.058H109.914C109.775 135.058 109.657 135.009 109.559 134.912C109.462 134.814 109.413 134.689 109.413 134.536V133.764C109.232 134.028 108.989 134.279 108.683 134.515C108.377 134.738 108.008 134.919 107.577 135.058C107.16 135.197 106.666 135.266 106.096 135.266ZM106.93 133.097C107.389 133.097 107.8 132.999 108.161 132.804C108.523 132.61 108.808 132.311 109.017 131.907C109.225 131.504 109.33 130.996 109.33 130.384V130.03L107.389 130.343C106.638 130.468 106.089 130.656 105.741 130.906C105.393 131.156 105.22 131.462 105.22 131.824C105.22 132.088 105.296 132.318 105.449 132.512C105.616 132.707 105.832 132.853 106.096 132.951C106.36 133.048 106.638 133.097 106.93 133.097Z" fill="#1C1B1F"/>
<path d="M115.507 135.058C115.368 135.058 115.25 135.009 115.152 134.912C115.055 134.814 115.006 134.689 115.006 134.536V124.73C115.006 124.577 115.055 124.452 115.152 124.355C115.25 124.257 115.368 124.209 115.507 124.209H117.593C117.746 124.209 117.872 124.257 117.969 124.355C118.066 124.452 118.115 124.577 118.115 124.73V128.319H122.35V124.73C122.35 124.577 122.399 124.452 122.496 124.355C122.594 124.257 122.719 124.209 122.872 124.209H124.958C125.097 124.209 125.216 124.257 125.313 124.355C125.41 124.452 125.459 124.577 125.459 124.73V134.536C125.459 134.689 125.41 134.814 125.313 134.912C125.216 135.009 125.097 135.058 124.958 135.058H122.872C122.719 135.058 122.594 135.009 122.496 134.912C122.399 134.814 122.35 134.689 122.35 134.536V130.781H118.115V134.536C118.115 134.689 118.066 134.814 117.969 134.912C117.872 135.009 117.746 135.058 117.593 135.058H115.507Z" fill="#1C1B1F"/>
<path d="M131.445 135.058C131.292 135.058 131.166 135.009 131.069 134.912C130.972 134.814 130.923 134.689 130.923 134.536V126.671H127.647C127.494 126.671 127.369 126.622 127.272 126.524C127.174 126.427 127.126 126.302 127.126 126.149V124.73C127.126 124.577 127.174 124.452 127.272 124.355C127.369 124.257 127.494 124.209 127.647 124.209H137.266C137.419 124.209 137.544 124.257 137.641 124.355C137.738 124.452 137.787 124.577 137.787 124.73V126.149C137.787 126.302 137.738 126.427 137.641 126.524C137.544 126.622 137.419 126.671 137.266 126.671H133.99V134.536C133.99 134.689 133.941 134.814 133.844 134.912C133.747 135.009 133.628 135.058 133.489 135.058H131.445Z" fill="#1C1B1F"/>
<path d="M139.875 135.058C139.75 135.058 139.638 135.009 139.541 134.912C139.444 134.814 139.395 134.696 139.395 134.557V124.73C139.395 124.577 139.444 124.452 139.541 124.355C139.638 124.257 139.757 124.209 139.896 124.209H141.982C142.135 124.209 142.26 124.257 142.358 124.355C142.455 124.452 142.504 124.577 142.504 124.73V132.658L141.669 132.179L147.115 124.542C147.184 124.445 147.261 124.369 147.344 124.313C147.441 124.243 147.56 124.209 147.699 124.209H149.576C149.716 124.209 149.834 124.257 149.931 124.355C150.029 124.452 150.077 124.563 150.077 124.688V134.536C150.077 134.689 150.029 134.814 149.931 134.912C149.834 135.009 149.709 135.058 149.556 135.058H147.469C147.33 135.058 147.212 135.009 147.115 134.912C147.017 134.814 146.969 134.689 146.969 134.536V126.921L147.824 127.067L142.337 134.724C142.281 134.821 142.205 134.905 142.107 134.974C142.01 135.03 141.899 135.058 141.773 135.058H139.875Z" fill="#1C1B1F"/>
<path d="M159.463 135.058C159.31 135.058 159.185 135.009 159.088 134.912C158.991 134.814 158.942 134.689 158.942 134.536V131.469H157.043V131.365C155.597 131.365 154.505 131.045 153.768 130.405C153.03 129.751 152.662 128.882 152.662 127.797C152.662 126.615 153.037 125.725 153.789 125.127C154.554 124.515 155.631 124.209 157.022 124.209H161.612C161.765 124.209 161.891 124.257 161.988 124.355C162.085 124.452 162.134 124.577 162.134 124.73V134.536C162.134 134.689 162.085 134.814 161.988 134.912C161.891 135.009 161.765 135.058 161.612 135.058H159.463ZM152.745 135.058C152.62 135.058 152.516 135.016 152.432 134.933C152.349 134.849 152.307 134.752 152.307 134.64C152.307 134.599 152.314 134.55 152.328 134.494C152.356 134.439 152.391 134.383 152.432 134.328L154.707 130.656L157.502 131.094L155.374 134.745C155.319 134.828 155.242 134.905 155.145 134.974C155.061 135.03 154.964 135.058 154.853 135.058H152.745ZM157.043 129.279H159.004V126.399H157.148C156.577 126.399 156.153 126.504 155.875 126.712C155.597 126.921 155.458 127.283 155.458 127.797C155.458 128.228 155.583 128.583 155.833 128.861C156.097 129.139 156.501 129.279 157.043 129.279Z" fill="#1C1B1F"/>
</svg>
