<svg width="16" height="11" viewBox="0 0 16 11" fill="none" xmlns="http://www.w3.org/2000/svg">
<path fill-rule="evenodd" clip-rule="evenodd" d="M13.6667 0.75C13.2701 0.75 12.9159 0.905833 12.6609 1.16083L6.58341 7.2525L3.33925 3.99417C3.08425 3.73917 2.73008 3.58333 2.33341 3.58333C1.55425 3.58333 0.916748 4.22083 0.916748 5C0.916748 5.39667 1.07258 5.75083 1.32758 6.00583L5.57758 10.2558C5.83258 10.5108 6.18675 10.6667 6.58341 10.6667C6.98008 10.6667 7.33425 10.5108 7.58925 10.2558L14.6726 3.1725C14.9276 2.9175 15.0834 2.56333 15.0834 2.16667C15.0834 1.3875 14.4459 0.75 13.6667 0.75Z" fill="white"/>
</svg>
