<svg width="40" height="40" viewBox="0 0 40 40" fill="none" xmlns="http://www.w3.org/2000/svg">
<path fill-rule="evenodd" clip-rule="evenodd" d="M0.527277 2.76511C0 3.82035 0 5.1969 0 7.95V32.05C0 34.8031 0 36.1796 0.527277 37.2349C1.01124 38.2035 1.79654 38.9888 2.76511 39.4727C3.82035 40 5.1969 40 7.95 40H32.05C34.8031 40 36.1796 40 37.2349 39.4727C38.2035 38.9888 38.9888 38.2035 39.4727 37.2349C40 36.1796 40 34.8031 40 32.05V7.95C40 5.1969 40 3.82035 39.4727 2.76511C38.9888 1.79654 38.2035 1.01124 37.2349 0.527277C36.1796 0 34.8031 0 32.05 0H7.95C5.1969 0 3.82035 0 2.76511 0.527277C1.79654 1.01124 1.01124 1.79654 0.527277 2.76511ZM30 26.5V13.5C30 13.1 29.85 12.75 29.55 12.45C29.25 12.15 28.9 12 28.5 12H11.5C11.1 12 10.75 12.15 10.45 12.45C10.15 12.75 10 13.1 10 13.5V26.5C10 26.9 10.15 27.25 10.45 27.55C10.75 27.85 11.1 28 11.5 28H28.5C28.9 28 29.25 27.85 29.55 27.55C29.85 27.25 30 26.9 30 26.5ZM28.5 16.225H11.5V13.5H28.5V16.225ZM11.5 26.5V19.45H28.5V26.5H11.5Z" fill="#F88122"/>
</svg>
