<svg width="33" height="41" viewBox="0 0 33 41" fill="none" xmlns="http://www.w3.org/2000/svg">
<path d="M8.28262 32.2396H24.718V29.1771H8.28262V32.2396ZM8.28262 23.5625H24.718V20.5H8.28262V23.5625ZM3.22949 40.9166C2.41283 40.9166 1.69824 40.6104 1.08574 39.9979C0.473242 39.3854 0.166992 38.6708 0.166992 37.8541V3.14581C0.166992 2.32915 0.473242 1.61456 1.08574 1.00206C1.69824 0.389563 2.41283 0.083313 3.22949 0.083313H21.6555L32.8337 11.2614V37.8541C32.8337 38.6708 32.5274 39.3854 31.9149 39.9979C31.3024 40.6104 30.5878 40.9166 29.7712 40.9166H3.22949ZM20.1243 12.6396V3.14581H3.22949V37.8541H29.7712V12.6396H20.1243Z" fill="#F47216"/>
</svg>
