<svg width="40" height="40" viewBox="0 0 40 40" fill="none" xmlns="http://www.w3.org/2000/svg">
<path fill-rule="evenodd" clip-rule="evenodd" d="M0.509862 2.8003C0 3.84106 0 5.19404 0 7.9V32.1C0 34.806 0 36.1589 0.509862 37.1997C0.998035 38.1962 1.80382 39.002 2.8003 39.4901C3.84106 40 5.19404 40 7.9 40H32.1C34.806 40 36.1589 40 37.1997 39.4901C38.1962 39.002 39.002 38.1962 39.4901 37.1997C40 36.1589 40 34.806 40 32.1V7.9C40 5.19404 40 3.84106 39.4901 2.8003C39.002 1.80382 38.1962 0.998035 37.1997 0.509862C36.1589 0 34.806 0 32.1 0H7.9C5.19404 0 3.84106 0 2.8003 0.509862C1.80382 0.998035 0.998035 1.80382 0.509862 2.8003ZM26.225 13.625L27.3 16.125L28.375 13.625L30.975 12.475L28.375 11.35L27.3 8.975L26.225 11.35L23.625 12.475L26.225 13.625ZM26.225 28.6L27.3 31L28.375 28.6L30.975 27.475L28.375 26.35L27.3 23.825L26.225 26.35L23.625 27.475L26.225 28.6ZM14.025 22.225L16.325 27.15L18.65 22.225L23.65 19.975L18.65 17.725L16.325 12.825L14.025 17.725L9 19.975L14.025 22.225ZM17.525 21.05L16.325 23.45L15.15 21.05L12.675 19.975L15.15 18.9L16.325 16.5L17.525 18.9L19.975 19.975L17.525 21.05Z" fill="#F88122"/>
</svg>
