<svg width="40" height="40" viewBox="0 0 40 40" fill="none" xmlns="http://www.w3.org/2000/svg">
<path fill-rule="evenodd" clip-rule="evenodd" d="M0.509862 2.8003C0 3.84106 0 5.19404 0 7.9V32.1C0 34.806 0 36.1589 0.509862 37.1997C0.998035 38.1962 1.80382 39.002 2.8003 39.4901C3.84106 40 5.19404 40 7.9 40H32.1C34.806 40 36.1589 40 37.1997 39.4901C38.1962 39.002 39.002 38.1962 39.4901 37.1997C40 36.1589 40 34.806 40 32.1V7.9C40 5.19404 40 3.84106 39.4901 2.8003C39.002 1.80382 38.1962 0.998035 37.1997 0.509862C36.1589 0 34.806 0 32.1 0H7.9C5.19404 0 3.84106 0 2.8003 0.509862C1.80382 0.998035 0.998035 1.80382 0.509862 2.8003ZM14.7284 17.552C16.5377 17.552 18.0044 16.0853 18.0044 14.276C18.0044 12.4667 16.5377 11 14.7284 11C12.9191 11 11.4524 12.4667 11.4524 14.276C11.4524 16.0853 12.9191 17.552 14.7284 17.552ZM28.9244 25.1957C28.9244 27.005 27.4576 28.4717 25.6484 28.4717C23.8391 28.4717 22.3724 27.005 22.3724 25.1957C22.3724 23.3865 23.8391 21.9197 25.6484 21.9197C27.4576 21.9197 28.9244 23.3865 28.9244 25.1957ZM12.1582 25.5251C11.5186 26.1648 11.5186 27.2019 12.1582 27.8416C12.7979 28.4812 13.835 28.4812 14.4747 27.8416L27.8418 14.4745C28.4814 13.8348 28.4814 12.7977 27.8418 12.158C27.2021 11.5184 26.165 11.5184 25.5253 12.158L12.1582 25.5251Z" fill="#F88122"/>
</svg>
