<svg width="11" height="20" viewBox="0 0 11 20" fill="none" xmlns="http://www.w3.org/2000/svg">
<path d="M8.91663 0.833374H2.24996C1.09996 0.833374 0.166626 1.76671 0.166626 2.91671V17.0834C0.166626 18.2334 1.09996 19.1667 2.24996 19.1667H8.91663C10.0666 19.1667 11 18.2334 11 17.0834V2.91671C11 1.76671 10.0666 0.833374 8.91663 0.833374ZM5.58329 18.3334C4.89163 18.3334 4.33329 17.775 4.33329 17.0834C4.33329 16.3917 4.89163 15.8334 5.58329 15.8334C6.27496 15.8334 6.83329 16.3917 6.83329 17.0834C6.83329 17.775 6.27496 18.3334 5.58329 18.3334ZM9.33329 15H1.83329V3.33337H9.33329V15Z" fill="#F47216"/>
</svg>
