<svg width="161" height="21" viewBox="0 0 161 21" fill="none" xmlns="http://www.w3.org/2000/svg">
<path d="M18.2474 0.116182C18.9881 0.116182 19.5925 0.358229 20.0604 0.842325C20.5282 1.32642 20.7622 1.95574 20.7622 2.73029V18.5312C20.7622 19.267 20.5477 19.8478 20.1189 20.2738C19.6899 20.6999 19.1246 20.9128 18.4228 20.9128C17.7404 20.9128 17.1751 20.6999 16.7267 20.2738C16.2979 19.8478 16.0834 19.267 16.0834 18.5312V9.99172L12.7497 16.0912C12.4183 16.7109 12.0674 17.1563 11.697 17.4274C11.3266 17.6791 10.888 17.805 10.3811 17.805C9.87425 17.805 9.43556 17.6791 9.06519 17.4274C8.69474 17.1563 8.34386 16.7109 8.01248 16.0912L4.70805 10.1659V18.5312C4.70805 19.2476 4.48385 19.8285 4.03547 20.2738C3.60658 20.6999 3.04122 20.9128 2.3394 20.9128C1.65707 20.9128 1.09172 20.6999 0.643336 20.2738C0.214446 19.8478 0 19.267 0 18.5312V2.73029C0 1.95574 0.23394 1.32642 0.70182 0.842325C1.1892 0.358229 1.80329 0.116182 2.5441 0.116182C3.07046 0.116182 3.54809 0.271093 3.97698 0.580913C4.40587 0.871373 4.76653 1.29737 5.05895 1.85892L10.4396 11.9087L15.7909 1.85892C16.3953 0.697096 17.2141 0.116182 18.2474 0.116182ZM45.7587 17.4564C45.9341 17.8244 46.0219 18.1826 46.0219 18.5312C46.0219 19.1702 45.7587 19.7123 45.2323 20.1577C44.7254 20.603 44.1406 20.8257 43.4778 20.8257C43.0294 20.8257 42.6199 20.7095 42.2496 20.4772C41.8792 20.2448 41.5867 19.8963 41.3723 19.4315L40.0564 16.4979H30.5818L29.2366 19.4315C29.0222 19.8963 28.72 20.2448 28.3302 20.4772C27.9597 20.7095 27.5504 20.8257 27.102 20.8257C26.4392 20.8257 25.8348 20.603 25.2889 20.1577C24.7625 19.7123 24.4994 19.1702 24.4994 18.5312C24.4994 18.1826 24.5871 17.8244 24.7625 17.4564L32.4826 1.71369C32.736 1.19087 33.1064 0.793912 33.5938 0.522821C34.1007 0.232365 34.6563 0.0871373 35.2606 0.0871373C35.8455 0.0871373 36.3913 0.232365 36.8982 0.522821C37.4051 0.793912 37.7852 1.19087 38.0387 1.71369L45.7587 17.4564ZM32.3948 12.4896H38.2433L35.3191 6.01245L32.3948 12.4896ZM66.1726 16.8755C66.6015 17.3596 66.816 17.8921 66.816 18.473C66.816 19.1314 66.5528 19.7123 66.0264 20.2158C65.5195 20.6999 64.9445 20.9419 64.3011 20.9419C63.6188 20.9419 63.0242 20.6515 62.5173 20.0705L57.4876 14.0871L52.3702 20.0705C51.8633 20.6515 51.2784 20.9419 50.6156 20.9419C49.9723 20.9419 49.3874 20.6902 48.8611 20.1867C48.3542 19.6833 48.1007 19.1023 48.1007 18.444C48.1007 17.8824 48.3055 17.3596 48.7148 16.8755L54.3295 10.4274L48.8611 4.12448C48.4322 3.62102 48.2177 3.09821 48.2177 2.55602C48.2177 1.89765 48.4712 1.32642 48.978 0.842325C49.5044 0.338866 50.099 0.0871373 50.7618 0.0871373C51.4442 0.0871373 52.0387 0.377594 52.5456 0.958508L57.4876 6.76763L62.4004 0.958508C62.8682 0.377594 63.4433 0.0871373 64.1256 0.0871373C64.7885 0.0871373 65.3733 0.338866 65.8802 0.842325C66.4066 1.32642 66.6697 1.89765 66.6697 2.55602C66.6697 3.11756 66.4651 3.64039 66.0556 4.12448L60.5873 10.4274L66.1726 16.8755ZM79.8626 21C77.7571 21 75.9248 20.574 74.365 19.722C72.825 18.8506 71.6358 17.6307 70.7976 16.0622C69.9593 14.4744 69.5402 12.6155 69.5402 10.4855C69.5402 8.35545 69.9593 6.50623 70.7976 4.93776C71.6358 3.34993 72.825 2.13002 74.365 1.27801C75.9248 0.426003 77.7571 0 79.8626 0C81.9682 0 83.7909 0.426003 85.3315 1.27801C86.8905 2.13002 88.0796 3.34993 88.8986 4.93776C89.7368 6.50623 90.1563 8.35545 90.1563 10.4855C90.1563 12.6155 89.7368 14.4744 88.8986 16.0622C88.0604 17.6307 86.8617 18.8506 85.3019 19.722C83.7621 20.574 81.949 21 79.8626 21ZM79.8626 16.9046C81.4224 16.9046 82.641 16.3624 83.5184 15.278C84.395 14.1743 84.8337 12.5767 84.8337 10.4855C84.8337 8.39423 84.3854 6.80636 83.4888 5.72199C82.6115 4.63762 81.4032 4.09544 79.8626 4.09544C78.3029 4.09544 77.085 4.63762 76.2077 5.72199C75.3303 6.787 74.8916 8.3748 74.8916 10.4855C74.8916 12.5961 75.3303 14.1937 76.2077 15.278C77.085 16.3624 78.3029 16.9046 79.8626 16.9046ZM110.652 0.116182C111.393 0.116182 111.997 0.358229 112.465 0.842325C112.953 1.32642 113.196 1.95574 113.196 2.73029V18.2697C113.196 19.0637 112.962 19.7027 112.494 20.1867C112.026 20.6708 111.422 20.9128 110.681 20.9128C109.804 20.9128 109.141 20.6224 108.693 20.0415L99.803 9.03323V18.2697C99.803 19.0637 99.5785 19.7027 99.1302 20.1867C98.6819 20.6708 98.0778 20.9128 97.3171 20.9128C96.5764 20.9128 95.9722 20.6708 95.504 20.1867C95.0365 19.7027 94.8024 19.0637 94.8024 18.2697V2.73029C94.8024 1.95574 95.0365 1.32642 95.504 0.842325C95.9722 0.358229 96.5764 0.116182 97.3171 0.116182C98.1553 0.116182 98.809 0.406639 99.2764 0.987555L108.166 11.9668V2.73029C108.166 1.93637 108.391 1.30705 108.839 0.842325C109.306 0.358229 109.911 0.116182 110.652 0.116182ZM128.193 21C126.087 21 124.255 20.574 122.695 19.722C121.155 18.8506 119.966 17.6307 119.127 16.0622C118.289 14.4744 117.87 12.6155 117.87 10.4855C117.87 8.35545 118.289 6.50623 119.127 4.93776C119.966 3.34993 121.155 2.13002 122.695 1.27801C124.255 0.426003 126.087 0 128.193 0C130.298 0 132.121 0.426003 133.661 1.27801C135.221 2.13002 136.41 3.34993 137.229 4.93776C138.067 6.50623 138.486 8.35545 138.486 10.4855C138.486 12.6155 138.067 14.4744 137.229 16.0622C136.391 17.6307 135.191 18.8506 133.632 19.722C132.092 20.574 130.279 21 128.193 21ZM128.193 16.9046C129.753 16.9046 130.971 16.3624 131.848 15.278C132.725 14.1743 133.164 12.5767 133.164 10.4855C133.164 8.39423 132.716 6.80636 131.819 5.72199C130.942 4.63762 129.733 4.09544 128.193 4.09544C126.633 4.09544 125.415 4.63762 124.537 5.72199C123.661 6.787 123.222 8.3748 123.222 10.4855C123.222 12.5961 123.661 14.1937 124.537 15.278C125.415 16.3624 126.633 16.9046 128.193 16.9046ZM160.473 17.3402C160.824 17.8631 161 18.3568 161 18.8216C161 19.4412 160.737 19.964 160.211 20.39C159.704 20.7967 159.109 21 158.427 21C157.959 21 157.52 20.8935 157.111 20.6805C156.701 20.4675 156.35 20.148 156.058 19.722L152.257 14.2034C151.983 13.816 151.691 13.5352 151.379 13.361C151.087 13.1674 150.736 13.0706 150.327 13.0706H148.426V18.2697C148.426 19.083 148.192 19.7317 147.724 20.2158C147.256 20.6805 146.613 20.9128 145.794 20.9128C144.975 20.9128 144.322 20.6805 143.834 20.2158C143.367 19.7317 143.133 19.083 143.133 18.2697V2.73029C143.133 1.93637 143.348 1.32642 143.776 0.900412C144.205 0.474412 144.82 0.261411 145.619 0.261411H152.958C155.454 0.261411 157.325 0.803595 158.573 1.88797C159.84 2.95298 160.473 4.50208 160.473 6.53527C160.473 8.0844 160.045 9.4011 159.187 10.4855C158.329 11.5505 157.12 12.2669 155.561 12.6349C156.204 12.7317 156.76 12.9447 157.228 13.2739C157.715 13.6031 158.193 14.0968 158.66 14.7552L160.473 17.3402ZM152.11 9.06225C153.299 9.06225 154.147 8.87827 154.655 8.5104C155.181 8.14245 155.444 7.54215 155.444 6.70955C155.444 5.85754 155.181 5.24758 154.655 4.87966C154.147 4.49239 153.299 4.29875 152.11 4.29875H148.367V9.06225H152.11Z" fill="#F88122"/>
</svg>
