<svg width="62" height="62" viewBox="0 0 62 62" fill="none" xmlns="http://www.w3.org/2000/svg">
<g clip-path="url(#clip0_2769_3598)">
<rect width="62" height="62" rx="31" fill="#BF2222"/>
<path d="M31.4645 62.5628C48.9769 62.5628 63.1133 48.3671 63.1133 30.7814C63.1133 13.1957 48.9769 -1 31.4645 -1C13.9522 -1 -0.184226 13.1957 -0.184226 30.7814C-0.395217 48.3671 13.9522 62.5628 31.4645 62.5628Z" fill="#FED42B"/>
<path d="M15.8509 16.3744L-12 53.029L-4.61529 61.504L16.0619 33.9601L13.952 49.0033L25.5565 53.029L39.693 30.3582C39.06 34.5958 38.005 44.3421 47.2887 47.3083C61.8471 51.7577 74.5066 25.4851 80.4144 12.1369L71.9747 7.6875C65.434 21.4594 55.3064 36.7145 51.2975 35.6551C47.2887 34.5958 50.8755 21.6713 53.1964 13.4082V13.1963L40.3259 8.74688L24.9236 33.9601L27.0335 20.1882L15.8509 16.3744Z" fill="black"/>
</g>
<defs>
<clipPath id="clip0_2769_3598">
<rect width="62" height="62" rx="31" fill="white"/>
</clipPath>
</defs>
</svg>
