<svg width="46" height="32" viewBox="0 0 46 32" fill="none" xmlns="http://www.w3.org/2000/svg">
<path d="M0.899902 31.9992V27.2992C0.899902 26.1326 1.1999 25.0742 1.7999 24.1242C2.3999 23.1742 3.23324 22.4659 4.2999 21.9992C6.73324 20.9326 8.9249 20.1659 10.8749 19.6992C12.8249 19.2326 14.8332 18.9992 16.8999 18.9992C18.9666 18.9992 20.9666 19.2326 22.8999 19.6992C24.8332 20.1659 27.0166 20.9326 29.4499 21.9992C30.5166 22.4659 31.3582 23.1742 31.9749 24.1242C32.5916 25.0742 32.8999 26.1326 32.8999 27.2992V31.9992H0.899902ZM30.0999 18.8492C32.3999 19.1159 34.5666 19.5076 36.5999 20.0242C38.6332 20.5409 40.2832 21.1326 41.5499 21.7992C42.6499 22.4326 43.5166 23.2159 44.1499 24.1492C44.7832 25.0826 45.0999 26.1326 45.0999 27.2992V31.9992H35.8999V27.2992C35.8999 25.1992 35.3666 23.4742 34.2999 22.1242C33.2332 20.7742 31.8332 19.6826 30.0999 18.8492ZM16.8999 15.9492C14.6999 15.9492 12.8999 15.2492 11.4999 13.8492C10.0999 12.4492 9.3999 10.6492 9.3999 8.44922C9.3999 6.24922 10.0999 4.44922 11.4999 3.04922C12.8999 1.64922 14.6999 0.949219 16.8999 0.949219C19.0999 0.949219 20.8999 1.64922 22.2999 3.04922C23.6999 4.44922 24.3999 6.24922 24.3999 8.44922C24.3999 10.6492 23.6999 12.4492 22.2999 13.8492C20.8999 15.2492 19.0999 15.9492 16.8999 15.9492ZM34.8999 8.44922C34.8999 10.6492 34.1999 12.4492 32.7999 13.8492C31.3999 15.2492 29.5999 15.9492 27.3999 15.9492C27.0332 15.9492 26.6249 15.9242 26.1749 15.8742C25.7249 15.8242 25.3166 15.7326 24.9499 15.5992C25.7499 14.7659 26.3582 13.7409 26.7749 12.5242C27.1916 11.3076 27.3999 9.94922 27.3999 8.44922C27.3999 6.94922 27.1916 5.62422 26.7749 4.47422C26.3582 3.32422 25.7499 2.26589 24.9499 1.29922C25.3166 1.19922 25.7249 1.11589 26.1749 1.04922C26.6249 0.982552 27.0332 0.949219 27.3999 0.949219C29.5999 0.949219 31.3999 1.64922 32.7999 3.04922C34.1999 4.44922 34.8999 6.24922 34.8999 8.44922ZM3.8999 28.9992H29.8999V27.2992C29.8999 26.7659 29.7416 26.2492 29.4249 25.7492C29.1082 25.2492 28.7166 24.8992 28.2499 24.6992C25.8499 23.6326 23.8332 22.9159 22.1999 22.5492C20.5666 22.1826 18.7999 21.9992 16.8999 21.9992C14.9999 21.9992 13.2249 22.1826 11.5749 22.5492C9.9249 22.9159 7.8999 23.6326 5.4999 24.6992C5.03324 24.8992 4.6499 25.2492 4.3499 25.7492C4.0499 26.2492 3.8999 26.7659 3.8999 27.2992V28.9992ZM16.8999 12.9492C18.1999 12.9492 19.2749 12.5242 20.1249 11.6742C20.9749 10.8242 21.3999 9.74922 21.3999 8.44922C21.3999 7.14922 20.9749 6.07422 20.1249 5.22422C19.2749 4.37422 18.1999 3.94922 16.8999 3.94922C15.5999 3.94922 14.5249 4.37422 13.6749 5.22422C12.8249 6.07422 12.3999 7.14922 12.3999 8.44922C12.3999 9.74922 12.8249 10.8242 13.6749 11.6742C14.5249 12.5242 15.5999 12.9492 16.8999 12.9492Z" fill="#67636D"/>
</svg>
