<svg width="40" height="40" viewBox="0 0 40 40" fill="none" xmlns="http://www.w3.org/2000/svg">
<path d="M24.4 22.65H32.9V20.15H24.4V22.65ZM24.4 28.3H32.9V25.8H24.4V28.3ZM25.2 10H37C37.8 10 38.5 10.3 39.1 10.9C39.7 11.5 40 12.2 40 13V37C40 37.8 39.7 38.5 39.1 39.1C38.5 39.7 37.8 40 37 40H3C2.2 40 1.5 39.7 0.9 39.1C0.3 38.5 0 37.8 0 37V13C0 12.2 0.3 11.5 0.9 10.9C1.5 10.3 2.2 10 3 10H14.85V3C14.85 2.2 15.15 1.5 15.75 0.9C16.35 0.3 17.05 0 17.85 0H22.2C23 0 23.7 0.3 24.3 0.9C24.9 1.5 25.2 2.2 25.2 3V10ZM17.85 13H22.2V3H17.85V13ZM13.7 25.8C14.4667 25.8 15.1083 25.5333 15.625 25C16.1417 24.4667 16.4 23.8333 16.4 23.1C16.4 22.3333 16.1417 21.6917 15.625 21.175C15.1083 20.6583 14.4667 20.4 13.7 20.4C12.9667 20.4 12.3333 20.6583 11.8 21.175C11.2667 21.6917 11 22.3333 11 23.1C11 23.8333 11.2667 24.4667 11.8 25C12.3333 25.5333 12.9667 25.8 13.7 25.8ZM7.6 31.65H19.55V30.95C19.55 30.35 19.4 29.8167 19.1 29.35C18.8 28.8833 18.4167 28.5667 17.95 28.4C16.8833 28.0333 16.05 27.7917 15.45 27.675C14.85 27.5583 14.2667 27.5 13.7 27.5C13.0667 27.5 12.3917 27.575 11.675 27.725C10.9583 27.875 10.15 28.1 9.25 28.4C8.75 28.5667 8.35 28.8833 8.05 29.35C7.75 29.8167 7.6 30.35 7.6 30.95V31.65ZM14.85 13H3V37H37V13H25.2C25.2 13.9333 24.8917 14.6667 24.275 15.2C23.6583 15.7333 22.8833 16 21.95 16H18.05C17.15 16 16.3917 15.7333 15.775 15.2C15.1583 14.6667 14.85 13.9333 14.85 13Z" fill="#67636D"/>
</svg>
