<svg width="32" height="40" viewBox="0 0 32 40" fill="none" xmlns="http://www.w3.org/2000/svg">
<path d="M16 40C11.7667 40 8.04167 38.525 4.825 35.575C1.60833 32.625 0 28.6333 0 23.6C0 20.2667 1.325 16.6417 3.975 12.725C6.625 8.80833 10.6333 4.56667 16 0C21.3667 4.56667 25.375 8.80833 28.025 12.725C30.675 16.6417 32 20.2667 32 23.6C32 28.6333 30.3917 32.625 27.175 35.575C23.9583 38.525 20.2333 40 16 40ZM16 37C19.6667 37 22.75 35.7333 25.25 33.2C27.75 30.6667 29 27.4667 29 23.6C29 20.9667 27.8917 17.975 25.675 14.625C23.4583 11.275 20.2333 7.73333 16 4C11.7667 7.73333 8.54167 11.275 6.325 14.625C4.10833 17.975 3 20.9667 3 23.6C3 27.4667 4.25 30.6667 6.75 33.2C9.25 35.7333 12.3333 37 16 37ZM15.95 33.6C16.4833 33.6 16.8917 33.5083 17.175 33.325C17.4583 33.1417 17.6 32.8667 17.6 32.5C17.6 32.1333 17.4583 31.85 17.175 31.65C16.8917 31.45 16.4667 31.35 15.9 31.35C14.5 31.35 13.075 30.9083 11.625 30.025C10.175 29.1417 9.25 27.5833 8.85 25.35C8.78333 25.05 8.63333 24.8083 8.4 24.625C8.16667 24.4417 7.91667 24.35 7.65 24.35C7.28333 24.35 7 24.4917 6.8 24.775C6.6 25.0583 6.53333 25.35 6.6 25.65C7.1 28.45 8.28333 30.475 10.15 31.725C12.0167 32.975 13.95 33.6 15.95 33.6Z" fill="#67636D"/>
</svg>
