<svg width="27" height="27" viewBox="0 0 27 27" fill="none" xmlns="http://www.w3.org/2000/svg">
<path d="M2.25 19.25C2.25 19.8023 2.69772 20.25 3.25 20.25H21.5C22.0523 20.25 22.5 19.8023 22.5 19.25V19C22.5 18.4477 22.0523 18 21.5 18H3.25C2.69771 18 2.25 18.4477 2.25 19V19.25ZM2.25 13.625C2.25 14.1773 2.69772 14.625 3.25 14.625H19.25C19.8023 14.625 20.25 14.1773 20.25 13.625V13.375C20.25 12.8227 19.8023 12.375 19.25 12.375H3.25C2.69772 12.375 2.25 12.8227 2.25 13.375V13.625ZM3.25 6.75C2.69771 6.75 2.25 7.19772 2.25 7.75V8C2.25 8.55228 2.69772 9 3.25 9H21.5C22.0523 9 22.5 8.55228 22.5 8V7.75C22.5 7.19772 22.0523 6.75 21.5 6.75H3.25Z" fill="white"/>
</svg>
