<svg width="20" height="20" viewBox="0 0 20 20" fill="none" xmlns="http://www.w3.org/2000/svg">
<path d="M12.9167 0.833984H6.25008C5.10008 0.833984 4.16675 1.76732 4.16675 2.91732V17.084C4.16675 18.234 5.10008 19.1673 6.25008 19.1673H12.9167C14.0667 19.1673 15.0001 18.234 15.0001 17.084V2.91732C15.0001 1.76732 14.0667 0.833984 12.9167 0.833984ZM9.58342 18.334C8.89175 18.334 8.33342 17.7757 8.33342 17.084C8.33342 16.3923 8.89175 15.834 9.58342 15.834C10.2751 15.834 10.8334 16.3923 10.8334 17.084C10.8334 17.7757 10.2751 18.334 9.58342 18.334ZM13.3334 15.0006H5.83341V3.33398H13.3334V15.0006Z" fill="white"/>
</svg>
